<?xml version="1.0" encoding="utf-8"?>
<!-- Generator: Adobe Illustrator 16.0.0, SVG Export Plug-In . SVG Version: 6.00 Build 0)  -->
<!DOCTYPE svg PUBLIC "-//W3C//DTD SVG 1.1//EN" "http://www.w3.org/Graphics/SVG/1.1/DTD/svg11.dtd">
<svg version="1.1" id="Calque_1" xmlns="http://www.w3.org/2000/svg" xmlns:xlink="http://www.w3.org/1999/xlink" x="0px" y="0px"
	 width="39.292px" height="40.438px" viewBox="0 0 39.292 40.438" enable-background="new 0 0 39.292 40.438" xml:space="preserve">
<g id="W">
	<rect y="10.104" fill="none" width="34.667" height="30.333"/>
	<path fill="#ED2224" d="M19.922,17.826l-6.563,6.719c-3.511,3.271-6.063,4.906-7.656,4.906c-0.667,0-1.208-0.208-1.625-0.625
		c-0.417-0.417-0.625-0.953-0.625-1.609c0-1.917,1.37-4.417,4.109-7.5c1.813-2.052,4.354-4.463,7.625-7.234
		c2.739-2.333,4.109-3.542,4.109-3.625c0-0.135-0.083-0.203-0.25-0.203c-0.813,0-2.714,0.953-5.703,2.859
		c-3.021,1.927-4.531,3.188-4.531,3.781c0,0.125,0.078,0.188,0.234,0.188c0.198,0,0.588-0.161,1.172-0.484l1.203-0.656
		c0.188-0.01,0.281,0.083,0.281,0.281c0,0.24-0.511,0.599-1.531,1.078c-1.021,0.479-1.714,0.719-2.078,0.719
		c-0.656,0-0.984-0.323-0.984-0.969c0-0.583,0.781-1.542,2.344-2.875c1.281-1.094,2.938-2.167,4.969-3.219
		c2.323-1.208,4.135-1.813,5.438-1.813c0.563,0,0.844,0.24,0.844,0.719c0,0.729-0.875,1.901-2.626,3.516
		C8.99,20.196,4.443,25.528,4.438,27.776c0,0.585,0.26,0.878,0.781,0.878c1.438,0,4.807-2.448,10.109-7.344
		c3.01-2.771,6.188-5.885,9.531-9.344c0.364-0.417,0.942-0.989,1.734-1.719c0.26-0.188,0.453-0.281,0.578-0.281
		c0.156,0,0.317,0.097,0.484,0.289c0.167,0.193,0.25,0.367,0.25,0.523c-0.002,0.229-0.935,1.401-2.799,3.516
		c-2.333,2.646-4.057,4.776-5.171,6.391c-1.864,2.656-2.796,4.771-2.796,6.344c0,1.042,0.438,1.563,1.313,1.563
		c0.792,0,1.792-0.469,3-1.406c1.156-0.896,3.021-2.682,5.594-5.359c2.552-2.646,4.799-5.346,6.742-8.102
		c1.942-2.755,2.914-4.377,2.914-4.867c0-0.208-0.094-0.313-0.281-0.313c-0.479,0-1.646,0.792-3.5,2.375l-2.844,2.422
		c-0.083-0.042-0.125-0.114-0.125-0.219c0-0.646,0.963-1.747,2.891-3.305c1.927-1.557,3.317-2.336,4.172-2.336
		c0.635,0,0.953,0.339,0.953,1.016c0,1.229-1.271,3.558-3.813,6.984c-1.833,2.479-3.62,4.656-5.359,6.531
		c-2.167,2.333-4.052,4.12-5.656,5.359c-1.656,1.281-3.162,1.922-4.516,1.922c-1.656,0-2.484-1.005-2.484-3.016
		c0-1.344,0.422-2.833,1.266-4.469C17.885,20.873,18.724,19.545,19.922,17.826z"/>
</g>
<g>
	<rect x="7.083" y="14.646" fill="none" width="30.333" height="31.167"/>
	<path fill="#436FB6" d="M19.368,27.176c0.209,0.016,0.314,0.152,0.314,0.41c0,0.141-0.055,0.277-0.165,0.41
		s-0.231,0.203-0.364,0.211c-0.016-0.148-0.101-0.313-0.257-0.492l-2.379,2.496c-1.75,1.836-3.028,3.078-3.833,3.727
		c-1.75,1.422-3.313,2.133-4.688,2.133c-0.992,0-1.488-0.402-1.488-1.207c0-1.359,1.319-2.965,3.956-4.816
		c2.638-1.852,5.113-2.875,7.426-3.07l3.41-3.75c-4.314,3.234-7.385,4.852-9.213,4.852c-0.75,0-1.375-0.248-1.875-0.744
		s-0.75-1.119-0.75-1.869c0-1.836,1.121-3.859,3.363-6.07c1.992-1.961,4.418-3.664,7.277-5.109c2.828-1.438,5.148-2.156,6.961-2.156
		c1.398,0,2.098,0.539,2.098,1.617c0,1.219-0.736,2.422-2.209,3.609s-2.627,1.781-3.463,1.781c-0.516,0-0.773-0.297-0.773-0.891
		c0-0.633,0.418-1.375,1.254-2.227c0.609-0.625,1.309-1.191,2.098-1.699c0.828-0.539,1.332-0.809,1.512-0.809
		c0.133,0,0.199,0.047,0.199,0.141c0,0.078-0.367,0.348-1.102,0.809c-0.602,0.383-1.262,0.91-1.98,1.582
		c-0.906,0.852-1.359,1.488-1.359,1.91c0,0.188,0.098,0.281,0.292,0.281c0.67,0,1.653-0.574,2.947-1.723
		c1.325-1.164,1.988-2.086,1.988-2.766c0-0.578-0.426-0.867-1.276-0.867c-1.476,0-3.582,0.777-6.318,2.332
		c-2.737,1.555-5.108,3.309-7.114,5.262c-2.249,2.18-3.373,4.016-3.373,5.508c0,0.773,0.453,1.16,1.359,1.16
		c1.43,0,3.712-1.004,6.845-3.012c2.445-1.563,4.547-3.121,6.305-4.676c0.413-0.367,0.675-0.551,0.784-0.551
		c0.148,0,0.222,0.145,0.222,0.434c0,0.406-0.199,0.82-0.598,1.242L19.368,27.176z M17.376,27.609
		c-2.25,0.258-4.542,1.295-6.875,3.111c-2.333,1.816-3.499,3.197-3.499,4.143c0,0.469,0.32,0.703,0.961,0.703
		c0.57,0,1.278-0.281,2.122-0.844c0.805-0.531,2.509-2.148,5.111-4.852L17.376,27.609z"/>
</g>
<g>
</g>
<g>
</g>
<g>
</g>
<g>
</g>
<g>
</g>
<g>
</g>
</svg>
